<svg width="22" height="29" viewBox="0 0 22 29" fill="none" xmlns="http://www.w3.org/2000/svg">
<path d="M11.4477 16.8437V19.7136H9.53529V16.8437H6.66527V14.9313H9.53529V12.0612H11.4477V14.9313H14.3177V16.8437H11.4477Z" fill="#005DA1"/>
<path fill-rule="evenodd" clip-rule="evenodd" d="M3.18325 0.5H14.0215V7.78H21.2V25.4914C21.196 26.2898 20.8808 27.0541 20.3233 27.6178C19.7657 28.1814 19.0109 28.4985 18.2237 28.5H3.18325C2.3948 28.5004 1.63829 28.1841 1.07922 27.6202C0.520147 27.0564 0.204027 26.291 0.200012 25.4914V3.5254C0.200743 2.72324 0.515282 1.95415 1.07459 1.38694C1.6339 0.819726 2.39227 0.500741 3.18325 0.5ZM3.18325 1.9266C2.76602 1.93073 2.36665 2.09886 2.06919 2.3956C1.77659 2.69726 1.6108 3.10228 1.60673 3.5254V25.4914C1.61243 25.9113 1.77816 26.3127 2.06919 26.6114C2.21522 26.7602 2.38883 26.8783 2.58002 26.9588C2.77122 27.0393 2.97623 27.0806 3.18325 27.0804H18.2237C18.4296 27.0833 18.634 27.0431 18.824 26.9624C19.014 26.8818 19.1856 26.7623 19.3281 26.6114C19.4755 26.4658 19.5924 26.2916 19.6719 26.0992C19.7513 25.9068 19.7917 25.7 19.7905 25.4914V9.2304H12.612V1.9266H3.18325ZM21.1724 5.631H16.1474V0.535L21.1724 5.631Z" fill="#005DA1"/>
</svg>
