<svg width="18" height="19" viewBox="0 0 18 19" fill="none" xmlns="http://www.w3.org/2000/svg">
<path fill-rule="evenodd" clip-rule="evenodd" d="M4.07927 0.590219C3.96409 0.64869 3.86415 0.735194 3.79937 0.832502L3.69863 0.983795L3.68764 2.50928C3.68017 3.55049 3.68905 4.0777 3.71568 4.16999C3.76122 4.32799 3.93023 4.53621 4.07473 4.61234C4.13049 4.64174 4.27755 4.67544 4.40148 4.68725C4.81622 4.7267 5.11954 4.58984 5.27527 4.29292C5.35266 4.1454 5.35442 4.11457 5.36488 2.71262C5.37672 1.12949 5.36382 0.9876 5.18826 0.770585C5.0307 0.575825 4.84711 0.500986 4.52452 0.500017C4.30933 0.499371 4.22419 0.516636 4.07927 0.590219ZM13.2094 0.547864C13.0686 0.613262 12.9131 0.77561 12.8434 0.929954C12.795 1.03713 12.7851 1.25967 12.776 2.44582C12.7625 4.20107 12.7723 4.26457 13.1004 4.53521C13.2216 4.63513 13.2605 4.64612 13.5354 4.65785C13.881 4.67264 14.0568 4.63004 14.2167 4.49296C14.4571 4.28682 14.4583 4.27803 14.4591 2.57971C14.4599 1.06631 14.4592 1.05145 14.3806 0.894778C14.337 0.807843 14.2405 0.687311 14.1661 0.626938C14.0377 0.522702 14.0128 0.516708 13.673 0.507986C13.428 0.501704 13.2817 0.514267 13.2094 0.547864ZM0.826063 2.01976C0.511397 2.10623 0.220967 2.36334 0.0752759 2.68437L0 2.85028V10.2444V17.4196C0 17.5638 0.0312237 17.7064 0.0915273 17.8375L0.0933816 17.8415C0.203636 18.0811 0.414916 18.3016 0.644865 18.417C0.753568 18.4716 0.873517 18.5 0.995148 18.5H9H17.0049C17.1265 18.5 17.2464 18.4716 17.3551 18.417C17.5851 18.3016 17.7964 18.0811 17.9066 17.8415L17.9085 17.8375C17.9688 17.7064 18 17.5638 18 17.4196V10.2444V2.85028L17.9024 2.64776C17.7885 2.41151 17.5526 2.17622 17.3193 2.06639C17.164 1.99324 17.0939 1.98818 16.089 1.97748L15.0235 1.96614V3.16456C15.0235 4.15426 15.0139 4.39149 14.9687 4.5267C14.8391 4.91432 14.4637 5.17142 13.9243 5.2421C13.1663 5.34138 12.6088 5.07573 12.3321 4.48345L12.2231 4.25014L12.2117 3.11051L12.2002 1.97088H9.06784H5.93542L5.93486 3.02077C5.93426 4.15854 5.912 4.35204 5.74908 4.63531C5.62696 4.84766 5.40645 5.04536 5.1647 5.15926C4.90315 5.28248 4.36047 5.31252 4.05127 5.22092C3.68486 5.11238 3.39904 4.86808 3.23045 4.51934L3.13503 4.32192L3.12485 3.1464L3.11467 1.97088L2.05049 1.97328C1.32739 1.97493 0.934943 1.98983 0.826063 2.01976ZM16.8552 12.0032V17.3693H9H1.14481V12.0032V6.63708H9H16.8552V12.0032ZM9.48142 8.13267C9.46849 8.1458 9.45793 8.60291 9.45793 9.14846C9.45793 9.87205 9.46937 10.152 9.5002 10.1834C9.56064 10.245 11.7153 10.245 11.7757 10.1834C11.836 10.122 11.836 8.21321 11.7757 8.1518C11.7446 8.12011 11.4389 8.10873 10.6192 8.10873C10.0063 8.10873 9.49431 8.11949 9.48142 8.13267ZM12.863 8.13267C12.8501 8.1458 12.8395 8.60291 12.8395 9.14846C12.8395 9.87205 12.851 10.152 12.8818 10.1834C12.9422 10.245 15.0969 10.245 15.1573 10.1834C15.2176 10.122 15.2176 8.21321 15.1573 8.1518C15.1262 8.12011 14.8205 8.10873 14.0008 8.10873C13.3879 8.10873 12.8759 8.11949 12.863 8.13267ZM2.73368 11.1372C2.70532 11.172 2.69634 11.4788 2.70296 12.1871L2.71233 13.1877L3.8353 13.1972C4.63463 13.2039 4.97223 13.1949 5.00654 13.1659C5.0723 13.1102 5.07794 11.1976 5.01252 11.131C4.94683 11.064 2.78849 11.0699 2.73368 11.1372ZM6.11528 11.1372C6.08692 11.172 6.07794 11.4788 6.08456 12.1871L6.09393 13.1877L7.21691 13.1972C8.01623 13.2039 8.35383 13.1949 8.38814 13.1659C8.45391 13.1102 8.45954 11.1976 8.39413 11.131C8.32843 11.064 6.17009 11.0699 6.11528 11.1372ZM9.49688 11.1372C9.46853 11.172 9.45955 11.4788 9.46617 12.1871L9.47554 13.1877L10.5985 13.1972C11.3978 13.2039 11.7354 13.1949 11.7697 13.1659C11.8355 13.1102 11.8411 11.1976 11.7757 11.131C11.71 11.064 9.55169 11.0699 9.49688 11.1372ZM12.8785 11.1372C12.8501 11.172 12.8412 11.4788 12.8478 12.1871L12.8571 13.1877L13.9801 13.1972C14.7794 13.2039 15.117 13.1949 15.1513 13.1659C15.2171 13.1102 15.2228 11.1976 15.1573 11.131C15.0916 11.064 12.9333 11.0699 12.8785 11.1372ZM2.75636 14.1059C2.7 14.1393 2.69472 14.2278 2.69472 15.1385C2.69472 15.8654 2.70613 16.1462 2.73699 16.1777C2.76802 16.2093 3.06676 16.2207 3.86169 16.2207C4.79871 16.2207 4.95151 16.2132 4.99946 16.1644C5.04701 16.1159 5.05479 15.9724 5.05479 15.1434C5.05479 14.1874 5.05409 14.1784 4.97649 14.123C4.90984 14.0754 4.74369 14.0673 3.85809 14.0682C3.21742 14.0689 2.79433 14.0833 2.75636 14.1059ZM6.13796 14.1059C6.0816 14.1393 6.07632 14.2278 6.07632 15.1385C6.07632 15.8654 6.08773 16.1462 6.11859 16.1777C6.14962 16.2093 6.44837 16.2207 7.24329 16.2207C8.18031 16.2207 8.33312 16.2132 8.38106 16.1644C8.42861 16.1159 8.4364 15.9724 8.4364 15.1434C8.4364 14.1874 8.43569 14.1784 8.35809 14.123C8.29145 14.0754 8.12529 14.0673 7.2397 14.0682C6.59903 14.0689 6.17594 14.0833 6.13796 14.1059ZM9.51957 14.1059C9.46317 14.1393 9.45793 14.2281 9.45793 15.1445C9.45793 16.0983 9.4612 16.1482 9.52605 16.1836C9.56867 16.2068 9.98979 16.2207 10.6508 16.2207C11.5643 16.2207 11.7148 16.2131 11.7627 16.1644C11.8102 16.1159 11.818 15.9724 11.818 15.1434C11.818 14.1874 11.8173 14.1784 11.7397 14.123C11.6731 14.0754 11.5069 14.0673 10.6213 14.0682C9.98063 14.0689 9.55754 14.0833 9.51957 14.1059ZM12.9012 14.1059C12.8448 14.1393 12.8395 14.2281 12.8395 15.1445C12.8395 16.0983 12.8428 16.1482 12.9077 16.1836C12.9503 16.2068 13.3714 16.2207 14.0324 16.2207C14.9459 16.2207 15.0964 16.2131 15.1443 16.1644C15.1918 16.1159 15.1996 15.9724 15.1996 15.1434C15.1996 14.1874 15.1989 14.1784 15.1213 14.123C15.0547 14.0754 14.8885 14.0673 14.0029 14.0682C13.3622 14.0689 12.9391 14.0833 12.9012 14.1059Z" fill="#70808A"/>
</svg>
