<svg width="18" height="18" viewBox="0 0 18 18" fill="none" xmlns="http://www.w3.org/2000/svg">
<path fill-rule="evenodd" clip-rule="evenodd" d="M8.12724 0.0408387C4.62629 0.37007 1.60296 2.76372 0.479782 6.09561C-0.642593 9.42505 0.239538 13.0635 2.75636 15.4856C5.93346 18.5431 10.8069 18.8465 14.3485 16.2074C14.8226 15.8541 15.8294 14.8571 16.176 14.3977C17.1059 13.1653 17.7037 11.7357 17.9312 10.1999C18.0126 9.65026 18.0241 8.44102 17.9532 7.88468C17.7941 6.63738 17.3823 5.42254 16.7715 4.39893C14.9813 1.39839 11.6344 -0.288982 8.12724 0.0408387ZM10.2354 1.88299C10.8255 1.98466 11.5557 2.21172 12.0827 2.45739C12.4856 2.64526 13.0688 2.98666 13.2905 3.16447L13.4153 3.26458L8.40146 8.31086C5.6438 11.0863 3.37527 13.3625 3.36026 13.3691C3.28673 13.4014 2.68401 12.4697 2.46886 11.9912C1.42794 9.67573 1.65085 7.03186 3.06571 4.91149C4.23472 3.15963 6.09684 2.04835 8.27481 1.80289C8.75761 1.74846 9.67103 1.78579 10.2354 1.88299ZM14.9182 4.92745C15.1958 5.32003 15.6369 6.21697 15.7999 6.72014C16.4901 8.85061 16.1717 11.1791 14.9387 13.0189C13.878 14.6016 12.2992 15.6672 10.404 16.0797C10.015 16.1644 9.84634 16.176 9.01266 16.1752C7.96655 16.1742 7.61158 16.123 6.80969 15.8574C6.12459 15.6304 5.20333 15.1393 4.73313 14.7502L4.60664 14.6455L9.62393 9.63389C12.3835 6.87749 14.655 4.62225 14.6718 4.62225C14.6887 4.62225 14.7995 4.75957 14.9182 4.92745Z" fill="white"/>
</svg>
