<svg width="20" height="24" viewBox="0 0 20 24" fill="none" xmlns="http://www.w3.org/2000/svg">
<path d="M1.8791 3.15177L1.87535 5.69886V18.3011C1.87535 19.3353 2.30344 20.3271 3.06545 21.0583C3.82746 21.7896 4.86097 22.2004 5.93861 22.2004H16.7106C16.5165 22.7267 16.1572 23.1824 15.6821 23.5047C15.207 23.8269 14.6395 24 14.0576 24H5.93861C4.3636 24 2.85309 23.3996 1.73938 22.3308C0.625674 21.2621 0 19.8126 0 18.3011V5.69886C0 4.5231 0.783897 3.5213 1.8791 3.15177ZM11.4121 0C12.1585 0 12.8749 0.284343 13.4025 0.791842L19.1761 6.33473C19.7037 6.84103 20 7.52849 20 8.24355V18.3011C20 19.0171 19.7036 19.7037 19.1761 20.2099C18.6485 20.7162 17.933 21.0006 17.187 21.0006H5.94111C5.19505 21.0006 4.47955 20.7162 3.952 20.2099C3.42446 19.7037 3.12809 19.0171 3.12809 18.3011V2.69946C3.12809 1.98352 3.42446 1.2969 3.952 0.790654C4.47955 0.284407 5.19505 0 5.94111 0H11.4121ZM11.2521 1.79964H5.94111C5.69243 1.79964 5.45393 1.89444 5.27808 2.06319C5.10223 2.23194 5.00344 2.46081 5.00344 2.69946V18.3011C5.00344 18.7978 5.42352 19.201 5.94111 19.201H17.187C17.4357 19.201 17.6742 19.1062 17.85 18.9374C18.0259 18.7687 18.1246 18.5398 18.1246 18.3011V8.40192H14.0651C13.3525 8.40203 12.6665 8.1426 12.1455 7.67606C11.6245 7.20952 11.3075 6.57062 11.2584 5.88842L11.2521 5.70366V1.79964ZM13.1275 3.07259L13.1287 5.70366C13.1287 6.15957 13.4813 6.53509 13.9389 6.59508L14.0664 6.60348L16.8044 6.60228L13.1287 3.07259H13.1275Z" fill="#204A6A"/>
</svg>
