<svg width="25" height="27" viewBox="0 0 25 27" fill="none" xmlns="http://www.w3.org/2000/svg">
<path fill-rule="evenodd" clip-rule="evenodd" d="M19.4406 5.77712H15.0067V1.33912L19.4406 5.77712ZM12.7005 25.8176C12.6722 25.9871 12.5846 26.1411 12.4534 26.252C12.3221 26.3628 12.1558 26.4234 11.9841 26.4228H3.58747C2.69742 26.4206 1.84438 26.066 1.21456 25.4364C0.585656 24.8058 0.231447 23.9518 0.229248 23.0607L0.229248 3.93881C0.23067 3.04755 0.584939 2.1932 1.21442 1.56299C1.8439 0.932767 2.69725 0.578084 3.58747 0.57666L13.148 0.57666C13.2436 0.577922 13.3381 0.598084 13.4259 0.635991C13.5137 0.673897 13.5932 0.7288 13.6597 0.797547C13.7263 0.866293 13.7787 0.947529 13.8138 1.03659C13.8489 1.12565 13.8661 1.22077 13.8644 1.31651V6.91651H16.9096C17.1051 6.91819 17.292 6.99668 17.4303 7.13507C17.5685 7.27345 17.6469 7.46066 17.6486 7.65635C17.6473 7.75209 17.6272 7.84664 17.5893 7.93456C17.5514 8.02249 17.4966 8.10206 17.4279 8.1687C17.3593 8.23535 17.2781 8.28776 17.1892 8.32292C17.1002 8.35808 17.0052 8.37529 16.9096 8.37358H13.1448C13.0491 8.37529 12.9541 8.35808 12.8652 8.32292C12.7762 8.28776 12.6951 8.23535 12.6264 8.1687C12.5577 8.10206 12.5029 8.02249 12.465 7.93456C12.4272 7.84664 12.407 7.75209 12.4058 7.65635V2.03374H3.58532C3.08173 2.03657 2.59959 2.23826 2.24369 2.59498C1.88779 2.9517 1.68688 3.43463 1.68462 3.93881V23.0607C1.69336 23.5639 1.89339 24.0449 2.24397 24.4057C2.60203 24.7602 3.08394 24.9611 3.58747 24.9657H11.8701L11.9594 21.5357L19.1265 10.1031L23.1571 12.6382L15.992 24.0913L12.7005 25.8144V25.8176ZM20.7615 7.52605L19.6192 9.31912L23.6497 11.852L24.791 10.0536C24.9843 9.73783 25.0457 9.35862 24.9619 8.99791C24.8782 8.63719 24.656 8.32396 24.3435 8.12589L22.6644 7.07266C22.5101 6.97685 22.3385 6.91243 22.1593 6.88309C21.9801 6.85375 21.7969 6.86006 21.6202 6.90167C21.4435 6.94328 21.2767 7.01937 21.1293 7.12558C20.982 7.2318 20.857 7.36605 20.7615 7.52066V7.52605Z" fill="#808080"/>
</svg>
