<svg width="24" height="24" viewBox="0 0 24 24" fill="none" xmlns="http://www.w3.org/2000/svg">
<path fill-rule="evenodd" clip-rule="evenodd" d="M2.9771 22.4885H20.9771C21.2061 22.4885 21.4351 22.4427 21.6183 22.3511L14.6565 17.542L12 19.374L9.34351 17.542L2.33588 22.3511C2.56488 22.4427 2.74809 22.4885 2.9771 22.4885ZM8.74809 9.0229H15.2519C15.6641 9.0229 15.9847 9.38931 15.9847 9.80153C15.9847 10.2137 15.6641 10.5344 15.2519 10.5344H8.74809C8.33588 10.5344 8.01527 10.2137 8.01527 9.80153C8.01527 9.38931 8.33588 9.0229 8.74809 9.0229ZM8.74809 3.0229H15.2519C15.6641 3.0229 15.9847 3.38931 15.9847 3.80153C15.9847 4.21374 15.6641 4.53435 15.2519 4.53435H8.74809C8.33588 4.53435 8.01527 4.21374 8.01527 3.80153C8.01527 3.38931 8.33588 3.0229 8.74809 3.0229ZM8.74809 6.0458H15.2519C15.6641 6.0458 15.9847 6.36641 15.9847 6.77863C15.9847 7.19084 15.6641 7.55725 15.2519 7.55725H8.74809C8.33588 7.55725 8.01527 7.19084 8.01527 6.77863C8.01527 6.36641 8.33588 6.0458 8.74809 6.0458ZM19.2824 10.9008V9.61832L21.6641 10.9466L12 17.542L2.33588 10.9466L4.71756 9.61832V10.9008L12 15.8931L19.2824 10.9008ZM19.2824 7.92366V2.01527C19.2824 0.916031 18.4122 0 17.313 0H6.68702C5.58779 0 4.71756 0.916031 4.71756 2.01527V7.92366L0 10.5344C0 12.5038 0 14.4733 0 16.6718V20.9771C0 22.626 1.32824 24 2.9771 24H20.9771C22.626 24 24 22.626 24 20.9771V17.1298C24 14.7939 24 12.6412 24 10.5344L19.2824 7.92366ZM22.4885 21.1145C22.4885 21.0687 22.4885 21.0229 22.4885 20.9771V12.9618C22.4885 12.687 22.4427 12.5038 22.3511 12.2748L15.9847 16.6718L22.4885 21.1145ZM8.01527 16.6718L1.64885 12.2748C1.55725 12.5038 1.51145 12.687 1.51145 12.9618V20.9771C1.51145 21.0229 1.51145 21.0687 1.51145 21.1145L8.01527 16.6718Z" fill="#204A6A"/>
</svg>
