<svg width="14" height="19" viewBox="0 0 14 19" fill="none" xmlns="http://www.w3.org/2000/svg">
<path fill-rule="evenodd" clip-rule="evenodd" d="M2.16267 0.5H9.12765V5.18818H13.75V16.5609C13.7483 17.0748 13.5462 17.5671 13.1879 17.9304C12.8295 18.2937 12.344 18.4985 11.8373 18.5H2.16267C1.65586 18.4985 1.17023 18.2936 0.811853 17.9301C0.453481 17.5667 0.25149 17.0741 0.25 16.5601L0.25 2.43991C0.25149 1.92588 0.453481 1.43333 0.811853 1.06986C1.17023 0.706379 1.65586 0.501511 2.16267 0.5V0.5ZM13.7218 3.79564H10.495V0.518818L13.7218 3.79564ZM2.86772 14.0998H9.82383C10.0043 14.106 10.1752 14.1831 10.3007 14.3148C10.4262 14.4464 10.4963 14.6224 10.4963 14.8055C10.4963 14.9886 10.4262 15.1646 10.3007 15.2962C10.1752 15.4279 10.0043 15.5049 9.82383 15.5112H2.86772C2.68729 15.5049 2.5163 15.4279 2.39083 15.2962C2.26537 15.1646 2.19524 14.9886 2.19524 14.8055C2.19524 14.6224 2.26537 14.4464 2.39083 14.3148C2.5163 14.1831 2.68729 14.106 2.86772 14.0998ZM2.86772 6.86791H11.2428C11.4232 6.87414 11.5942 6.95122 11.7197 7.08288C11.8451 7.21454 11.9153 7.39049 11.9153 7.57359C11.9153 7.7567 11.8451 7.93264 11.7197 8.0643C11.5942 8.19596 11.4232 8.27304 11.2428 8.27927H2.86772C2.68729 8.27304 2.5163 8.19596 2.39083 8.0643C2.26537 7.93264 2.19524 7.7567 2.19524 7.57359C2.19524 7.39049 2.26537 7.21454 2.39083 7.08288C2.5163 6.95122 2.68729 6.87414 2.86772 6.86791ZM2.86772 9.27255H9.82383C10.0095 9.27255 10.1876 9.34737 10.3189 9.48055C10.4503 9.61374 10.524 9.79438 10.524 9.98273C10.524 10.1711 10.4503 10.3517 10.3189 10.4849C10.1876 10.6181 10.0095 10.6929 9.82383 10.6929H2.86772C2.68201 10.6929 2.50391 10.6181 2.37259 10.4849C2.24128 10.3517 2.16751 10.1711 2.16751 9.98273C2.16751 9.79438 2.24128 9.61374 2.37259 9.48055C2.50391 9.34737 2.68201 9.27255 2.86772 9.27255ZM2.86772 11.6862H9.82383C10.0095 11.6862 10.1876 11.761 10.3189 11.8942C10.4503 12.0274 10.524 12.208 10.524 12.3964C10.524 12.5847 10.4503 12.7654 10.3189 12.8985C10.1876 13.0317 10.0095 13.1065 9.82383 13.1065H2.86772C2.68201 13.1065 2.50391 13.0317 2.37259 12.8985C2.24128 12.7654 2.16751 12.5847 2.16751 12.3964C2.16751 12.208 2.24128 12.0274 2.37259 11.8942C2.50391 11.761 2.68201 11.6862 2.86772 11.6862Z" fill="#70808A"/>
</svg>
