<svg width="22" height="28" viewBox="0 0 22 28" fill="none" xmlns="http://www.w3.org/2000/svg">
<path fill-rule="evenodd" clip-rule="evenodd" d="M3.17612 0H14.0125V7.2891H21.2C21.2 14.2043 21.2 24.4383 21.2 24.9818C21.2 26.6393 19.8583 28 18.2201 28H3.17612C1.53793 28 0.200012 26.6393 0.200012 24.9818V3.01817C0.200012 1.35683 1.53793 0 3.17612 0V0ZM10.6981 11.1823C13.9593 11.1823 16.7682 13.2175 18.0491 16.1509C16.7682 19.0842 13.9593 21.1195 10.6981 21.1195C7.44074 21.1195 4.63187 19.0842 3.34716 16.1509C4.63187 13.2175 7.44074 11.1823 10.6981 11.1823ZM10.6981 14.2467C11.7358 14.2467 12.5758 15.0986 12.5758 16.1509C12.5758 17.1993 11.7358 18.0512 10.6981 18.0512C9.66427 18.0512 8.82427 17.1993 8.82427 16.1509C8.82427 15.0986 9.66427 14.2467 10.6981 14.2467ZM10.6981 13.0094C12.4085 13.0094 13.792 14.4163 13.792 16.1509C13.792 17.8816 12.4085 19.2885 10.6981 19.2885C8.99151 19.2885 7.60418 17.8816 7.60418 16.1509C7.60418 14.4163 8.99151 13.0094 10.6981 13.0094ZM21.1658 5.13051H16.1372V0.0346916L21.1658 5.13051Z" fill="#184261"/>
</svg>
