<svg width="24" height="24" viewBox="0 0 24 24" fill="none" xmlns="http://www.w3.org/2000/svg">
<path fill-rule="evenodd" clip-rule="evenodd" d="M20.4733 7.55725H3.52672C2.9771 7.55725 2.47328 7.78626 2.10687 8.15267C1.74046 8.51908 1.51145 9.0229 1.51145 9.57252V15.2061C1.51145 15.7557 1.74046 16.2595 2.10687 16.626C2.24427 16.7634 2.42748 16.9008 2.61069 16.9924V16.1679C2.47328 16.0763 2.29008 15.9389 2.15267 15.8015C1.74046 15.3893 1.51145 14.8397 1.51145 14.2443C1.51145 13.6489 1.74046 13.0992 2.15267 12.687C2.56489 12.2748 3.1145 12.0458 3.70992 12.0458H20.2443C20.8397 12.0458 21.3893 12.2748 21.8015 12.687C22.1679 13.0992 22.4427 13.6489 22.4427 14.2443C22.4427 14.8397 22.1679 15.3893 21.8015 15.8015C21.6641 15.9389 21.4809 16.0763 21.2977 16.1679V17.0382C21.5267 16.9008 21.7099 16.7634 21.8931 16.626C22.2595 16.2595 22.4885 15.7557 22.4885 15.2061V9.57252C22.4885 9.0229 22.2595 8.51908 21.8931 8.15267C21.5725 7.78626 21.0687 7.55725 20.5649 7.55725H20.4733ZM8.74809 20.4733H15.2519C15.6641 20.4733 15.9847 20.7939 15.9847 21.2061C15.9847 21.6183 15.6641 21.9847 15.2519 21.9847H8.74809C8.33588 21.9847 8.01527 21.6183 8.01527 21.2061C8.01527 20.7939 8.33588 20.4733 8.74809 20.4733ZM8.74809 17.4504H15.2519C15.6641 17.4504 15.9847 17.8168 15.9847 18.229C15.9847 18.6412 15.6641 18.9618 15.2519 18.9618H8.74809C8.33588 18.9618 8.01527 18.6412 8.01527 18.229C8.01527 17.8168 8.33588 17.4504 8.74809 17.4504ZM19.8321 4.62595V3.52672C19.7863 1.55725 18.229 0 16.3053 0H7.64886C5.72519 0 4.12214 1.55725 4.12214 3.52672V4.62595H19.8321ZM18.2748 3.16031C18.229 2.74809 18 2.38168 17.7252 2.10687C17.3588 1.74046 16.855 1.51145 16.3053 1.51145H7.64886C7.09924 1.51145 6.59542 1.74046 6.22901 2.10687C5.9542 2.38168 5.72519 2.74809 5.67939 3.16031H18.2748ZM5.54199 14.9313V22.5802C5.54199 23.3588 6.18321 24 6.96183 24H16.9924C17.771 24 18.4122 23.3588 18.4122 22.5802V14.9313H5.54199ZM20.4733 6.0458H3.52672C1.55725 6.0458 0 7.60305 0 9.57252V15.2061C0 17.1298 1.55725 18.687 3.52672 18.687H4.12214V14.9313H3.70992C3.34351 14.9313 3.0229 14.6565 3.0229 14.2443C3.0229 13.8779 3.34351 13.5573 3.70992 13.5573H20.2443C20.6107 13.5573 20.9313 13.8779 20.9313 14.2443C20.9313 14.6565 20.6107 14.9313 20.2443 14.9313H19.8321V18.687H20.4733C22.3969 18.687 24 17.1298 24 15.2061V9.57252C24 7.60305 22.3969 6.0458 20.4733 6.0458Z" fill="#204A6A"/>
</svg>
