<svg width="12" height="18" viewBox="0 0 12 18" fill="none" xmlns="http://www.w3.org/2000/svg">
<path fill-rule="evenodd" clip-rule="evenodd" d="M7.31426 0.264425C7.20391 0.322202 6.79008 0.957197 4.00378 5.34414C1.43774 9.38435 0.816284 10.3851 0.80327 10.498C0.780505 10.6955 0.893012 10.9034 1.07149 10.9936C1.20437 11.0608 1.27218 11.0629 3.3464 11.0629C5.36611 11.0629 5.48337 11.0662 5.46672 11.1231C5.35629 11.5004 3.91803 17.2436 3.91803 17.3073C3.91803 17.4599 4.04764 17.6599 4.19475 17.7343C4.36722 17.8214 4.50885 17.822 4.67872 17.7361C4.79955 17.675 5.10553 17.2065 7.95183 12.7236C9.67871 10.0038 11.1173 7.72901 11.1486 7.66848C11.2705 7.43318 11.1689 7.12655 10.9289 7.00519C10.796 6.93802 10.7283 6.93596 8.6523 6.93596H6.51266L6.53393 6.85858C6.71286 6.20759 8.08238 0.752467 8.08238 0.690632C8.08238 0.538865 7.95241 0.338779 7.80566 0.264563C7.63568 0.178654 7.47817 0.178586 7.31426 0.264425Z" fill="white"/>
</svg>
