<svg width="24" height="24" viewBox="0 0 24 24" fill="none" xmlns="http://www.w3.org/2000/svg">
<path d="M22.4989 17.0009C22.4989 16.5873 22.836 16.2502 23.2495 16.2502C23.663 16.2502 24 16.5873 24 17.0009V19.4996C24 20.7402 23.4927 21.8662 22.6761 22.6794C21.8631 23.4961 20.7372 24 19.5002 24H4.49978C3.26278 24 2.13696 23.4961 1.3204 22.6794C0.507312 21.8662 0 20.7402 0 19.4996V17.0009C0 16.5873 0.337053 16.2502 0.750547 16.2502C1.16404 16.2502 1.50108 16.5873 1.50108 17.0009V19.4996C1.50108 20.3267 1.83814 21.0738 2.3802 21.6195C2.92573 22.1651 3.67627 22.5022 4.49978 22.5022H19.5002C20.3237 22.5022 21.0743 22.1651 21.6163 21.6195C22.1619 21.0738 22.4989 20.3267 22.4989 19.4996V17.0009ZM11.9983 20.0382L14.6321 15.4787L17.2625 10.9192H12.7488V0.750655C12.7488 0.333626 12.4152 0 11.9983 0C11.5848 0 11.2512 0.333626 11.2512 0.750655V10.9192H6.73751L9.3679 15.4787L11.9983 20.0382Z" fill="#204A6A"/>
</svg>
