<svg width="13" height="10" viewBox="0 0 13 10" fill="none" xmlns="http://www.w3.org/2000/svg">
<path d="M0 10V0H1.52441L5.90625 8.0301H5.97461C5.96094 7.79754 5.94499 7.52394 5.92676 7.2093C5.90853 6.8901 5.89258 6.57091 5.87891 6.25171C5.86979 5.93251 5.86523 5.65207 5.86523 5.4104V0H7.0957V10H5.5918L1.16895 1.9357H1.10059C1.11882 2.18194 1.13704 2.46922 1.15527 2.79754C1.1735 3.12585 1.18717 3.45189 1.19629 3.77565C1.20996 4.09941 1.2168 4.38668 1.2168 4.63748V10H0ZM8.36719 10V9.00821H12.1133V10H8.36719ZM10.2334 8.12585C9.82324 8.12585 9.45638 8.03238 9.13281 7.84542C8.8138 7.65846 8.56315 7.38714 8.38086 7.03146C8.20312 6.67123 8.11426 6.23347 8.11426 5.71819C8.11426 4.95212 8.30566 4.36388 8.68848 3.95349C9.07585 3.53853 9.60449 3.33105 10.2744 3.33105C10.6846 3.33105 11.0492 3.42453 11.3682 3.61149C11.6917 3.79389 11.9447 4.06293 12.127 4.4186C12.3092 4.76972 12.4004 5.20292 12.4004 5.71819C12.4004 6.49339 12.2044 7.08846 11.8125 7.50342C11.4251 7.91838 10.8988 8.12585 10.2334 8.12585ZM10.2607 7.27086C10.6527 7.27086 10.9375 7.1409 11.1152 6.88098C11.2975 6.61651 11.3887 6.22891 11.3887 5.71819C11.3887 5.20748 11.2975 4.82672 11.1152 4.57592C10.9375 4.32513 10.6527 4.19973 10.2607 4.19973C9.86426 4.19973 9.57259 4.32513 9.38574 4.57592C9.20345 4.82672 9.1123 5.20748 9.1123 5.71819C9.1123 6.22891 9.20345 6.61651 9.38574 6.88098C9.56803 7.1409 9.8597 7.27086 10.2607 7.27086Z" fill="#70808A"/>
</svg>
